<svg width="41" height="42" viewBox="0 0 41 42" fill="none" xmlns="http://www.w3.org/2000/svg">
<g id="Button_Continue">
<g id="Exclude">
<mask id="path-1-inside-1_5_197" fill="white">
<path d="M37.5276 16.1126C41.1919 17.9972 41.1318 23.2563 37.4254 25.0566L7.18455 39.745C3.86371 41.358 2.68178e-05 38.9393 2.71405e-05 35.2475L2.97843e-05 5.00666C3.01114e-05 1.26489 3.95926 -1.15107 7.28677 0.560224L37.5276 16.1126Z"/>
</mask>
<path d="M37.5276 16.1126C41.1919 17.9972 41.1318 23.2563 37.4254 25.0566L7.18455 39.745C3.86371 41.358 2.68178e-05 38.9393 2.71405e-05 35.2475L2.97843e-05 5.00666C3.01114e-05 1.26489 3.95926 -1.15107 7.28677 0.560224L37.5276 16.1126Z" fill="#17A4DD"/>
<path d="M7.28677 0.560224L7.51544 0.115579L7.28677 0.560224ZM7.18455 39.745L7.403 40.1948L7.18455 39.745ZM37.4254 25.0566L37.2069 24.6069L37.4254 25.0566ZM37.5276 16.1126L37.2989 16.5573L37.5276 16.1126ZM37.2069 24.6069L6.9661 39.2953L7.403 40.1948L37.6438 25.5064L37.2069 24.6069ZM0.500027 35.2475L0.50003 5.00666L-0.49997 5.00666L-0.499973 35.2475L0.500027 35.2475ZM7.05809 1.00487L37.2989 16.5573L37.7563 15.668L7.51544 0.115579L7.05809 1.00487ZM0.50003 5.00666C0.50003 1.63907 4.06333 -0.535297 7.05809 1.00487L7.51544 0.115579C3.85518 -1.76684 -0.49997 0.890709 -0.49997 5.00666L0.50003 5.00666ZM6.9661 39.2953C3.97734 40.7469 0.500027 38.5701 0.500027 35.2475L-0.499973 35.2475C-0.499973 39.3085 3.75008 41.969 7.403 40.1948L6.9661 39.2953ZM37.6438 25.5064C41.7209 23.5261 41.787 17.741 37.7563 15.668L37.2989 16.5573C40.5968 18.2534 40.5427 22.9866 37.2069 24.6069L37.6438 25.5064Z" fill="white" mask="url(#path-1-inside-1_5_197)"/>
</g>
<g id="Mask Group">
<g id="Group 60">
<g id="Group 61">
<mask id="mask0_5_197" style="mask-type:alpha" maskUnits="userSpaceOnUse" x="0" y="0" width="41" height="42">
<g id="Exclude_2">
<mask id="path-3-inside-2_5_197" fill="white">
<path d="M37.5276 16.9978C41.1919 18.8824 41.1318 24.1415 37.4254 25.9418L7.18455 40.6302C3.86371 42.2432 2.68178e-05 39.8245 2.71405e-05 36.1327L2.97843e-05 5.89186C3.01114e-05 2.15008 3.95926 -0.265876 7.28677 1.44542L37.5276 16.9978Z"/>
</mask>
<path d="M37.5276 16.9978C41.1919 18.8824 41.1318 24.1415 37.4254 25.9418L7.18455 40.6302C3.86371 42.2432 2.68178e-05 39.8245 2.71405e-05 36.1327L2.97843e-05 5.89186C3.01114e-05 2.15008 3.95926 -0.265876 7.28677 1.44542L37.5276 16.9978Z" fill="#FFBC88"/>
<path d="M7.28677 1.44542L7.51544 1.00077L7.28677 1.44542ZM7.18455 40.6302L7.403 41.08L7.18455 40.6302ZM37.4254 25.9418L37.2069 25.4921L37.4254 25.9418ZM37.5276 16.9978L37.2989 17.4425L37.5276 16.9978ZM37.2069 25.4921L6.9661 40.1805L7.403 41.08L37.6438 26.3916L37.2069 25.4921ZM0.500027 36.1327L0.50003 5.89186L-0.49997 5.89186L-0.499973 36.1327L0.500027 36.1327ZM7.05809 1.89006L37.2989 17.4425L37.7563 16.5532L7.51544 1.00077L7.05809 1.89006ZM0.50003 5.89186C0.50003 2.52426 4.06333 0.349896 7.05809 1.89006L7.51544 1.00077C3.85518 -0.881648 -0.49997 1.7759 -0.49997 5.89186L0.50003 5.89186ZM6.9661 40.1805C3.97734 41.6321 0.500027 39.4553 0.500027 36.1327L-0.499973 36.1327C-0.499973 40.1937 3.75008 42.8542 7.403 41.08L6.9661 40.1805ZM37.6438 26.3916C41.7209 24.4113 41.787 18.6262 37.7563 16.5532L37.2989 17.4425C40.5968 19.1385 40.5427 23.8718 37.2069 25.4921L37.6438 26.3916Z" fill="white" mask="url(#path-3-inside-2_5_197)"/>
</g>
</mask>
<g mask="url(#mask0_5_197)">
<rect id="Rectangle 1206" x="28.7371" y="-34.0034" width="8.94461" height="94.6521" transform="rotate(30 28.7371 -34.0034)" fill="#17A4DD"/>
</g>
</g>
</g>
</g>
</g>
</svg>
