<svg width="185" height="197" viewBox="0 0 185 197" fill="none" xmlns="http://www.w3.org/2000/svg">
<g id="HngLogo 1" clip-path="url(#clip0_150_1112)">
<path id="Vector" d="M118.381 60.5568C114.718 60.5568 111.055 60.5568 106.91 60.5568C106.91 54.3763 106.91 48.6122 107.105 42.3537C107.482 41.7284 107.627 41.5606 108.115 41.3103C117.82 41.3005 127.143 41.3365 136.56 41.5242C136.814 41.8595 137.007 41.9824 137.234 42.0448C137.234 42.0448 137.346 41.9593 137.336 42.3654C137.308 61.2458 137.304 79.7202 137.27 98.1945C137.234 117.684 137.169 137.174 136.744 156.676C126.59 156.695 116.809 156.702 107.028 156.708C106.988 151.147 106.949 145.585 107.097 139.518C107.453 138.866 107.598 138.697 107.719 138.505C110.746 138.456 113.773 138.407 117.339 138.481C118.329 138.657 118.782 138.71 119.234 138.763C119.202 138.318 119.171 137.872 119.189 137.057C119.289 135.196 119.34 133.705 119.546 131.893C119.813 130.858 120.021 130.143 120.021 129.427C120.041 108.715 120.05 88.002 120.015 67.2895C120.013 66.1631 119.608 65.0374 119.341 63.6236C119.323 62.9487 119.355 62.5615 119.463 62.0741C119.623 61.7039 119.562 61.4751 119.267 61.0643C118.911 60.7464 118.646 60.6516 118.381 60.5568Z" fill="white"/>
<path id="Vector_2" d="M50.2327 41.4139C50.8304 41.3625 51.4281 41.3112 52.4681 41.4423C53.3683 41.5401 53.826 41.4553 54.6652 41.319C62.7298 41.2915 70.4128 41.3157 78.2292 41.4813C78.5571 41.8032 78.7819 41.9148 79.2081 41.9999C79.3794 42.0422 79.7198 42.1359 79.7198 42.1359C79.732 46.7864 79.5548 51.4491 79.8172 56.0835C80.0205 59.6726 78.6688 60.7308 75.5225 60.4629C73.2261 60.2674 70.8954 60.5306 68.1045 61.146C67.5559 78.8552 67.4474 96.0076 67.4259 113.16C67.4164 120.711 67.5836 128.262 67.6707 135.813C68.4075 136.653 69.0601 138.08 69.8978 138.216C72.0368 138.564 74.2643 138.445 76.4453 138.31C78.9556 138.154 79.858 139.296 79.7883 141.914C79.6644 146.571 79.7402 151.234 79.2984 156.304C77.1099 156.716 75.354 156.672 73.6012 156.731C67.4302 156.94 61.2602 157.184 54.784 157.47C53.8607 157.488 53.2434 157.451 52.4781 157.294C51.8787 157.249 51.4273 157.323 50.7782 157.428C50.5805 157.459 50.1952 157.345 50.1297 157.198C49.9406 156.863 49.7745 156.742 49.5091 156.409C49.4737 155.753 49.4952 155.375 49.6767 154.679C49.9433 152.481 50.1406 150.603 50.1429 148.725C50.1866 112.955 50.2073 77.1842 50.2327 41.4139Z" fill="#FEFFFF"/>
<path id="Vector_3" d="M49.5167 154.998C49.4952 155.375 49.4737 155.753 49.4296 156.613C49.4124 157.241 49.4177 157.387 49.3463 157.534C49.2695 157.535 49.1267 157.595 49.1267 157.595C48.9205 156.032 48.5357 154.47 48.5343 152.907C48.5013 117.289 48.5043 81.6719 48.5332 46.0544C48.5344 44.6322 48.856 43.2103 49.2049 41.915C49.3655 70.3942 49.3335 98.7466 49.3426 127.099C49.3457 136.399 49.4556 145.698 49.5167 154.998Z" fill="#01A3E1"/>
<path id="Vector_4" d="M137.116 156.664C137.169 137.174 137.234 117.684 137.27 98.1947C137.304 79.7203 137.308 61.2459 137.404 42.3638C137.701 43.2213 138.107 44.4865 138.108 45.7519C138.123 82.7478 138.098 119.744 137.855 157.142C137.49 157.53 137.349 157.515 137.207 157.288C137.205 157.077 137.116 156.664 137.116 156.664Z" fill="#49B3E2"/>
<path id="Vector_5" d="M49.6767 154.678C49.4556 145.698 49.3456 136.398 49.3426 127.099C49.3334 98.7465 49.3655 70.3941 49.4221 41.6403C49.4628 41.2389 49.859 41.2692 50.0458 41.3415C50.2073 77.1842 50.1866 112.955 50.1429 148.725C50.1406 150.603 49.9432 152.481 49.6767 154.678Z" fill="#C9FAFF"/>
<path id="Vector_6" d="M118.384 60.9579C118.646 60.6516 118.911 60.7464 119.224 61.2879C119.31 61.8811 119.348 62.0278 119.386 62.1744C119.355 62.5615 119.323 62.9486 119.273 64.0289C119.3 87.2191 119.345 109.716 119.391 132.213C119.34 133.705 119.289 135.196 119 137.052C118.762 137.417 118.398 137.308 118.398 137.308C118.394 111.992 118.391 86.6756 118.384 60.9579Z" fill="#009EE5"/>
<path id="Vector_7" d="M67.8284 135.486C67.5837 128.262 67.4164 120.711 67.4259 113.16C67.4475 96.0075 67.5559 78.8551 67.8908 61.4485C68.0971 85.8492 68.0416 110.504 67.8284 135.486Z" fill="#56C1E9"/>
<path id="Vector_8" d="M137.208 157.5C137.349 157.515 137.49 157.53 137.841 157.549C137.712 157.782 137.37 158.211 137.03 158.209C127.172 158.149 117.314 158.046 107.577 157.761C117.535 157.548 127.371 157.524 137.208 157.5Z" fill="#1EA8E4"/>
<path id="Vector_9" d="M136.466 41.3725C127.143 41.3365 117.82 41.3005 107.921 41.2413C107.345 41.218 106.937 41.2504 106.937 41.2504C107.408 40.9798 107.88 40.4711 108.349 40.4736C117.823 40.5257 127.297 40.6364 136.827 40.9687C136.744 41.2589 136.605 41.3157 136.466 41.3725Z" fill="#19A8EE"/>
<path id="Vector_10" d="M137.207 157.288C127.371 157.524 117.535 157.548 107.317 157.528C106.937 157.484 106.923 157.088 106.975 156.898C116.809 156.702 126.59 156.695 136.744 156.676C137.116 156.664 137.205 157.077 137.207 157.288Z" fill="#E3FFFF"/>
<path id="Vector_11" d="M50.1953 157.345C50.1953 157.345 50.5805 157.459 51.05 157.501C51.8884 157.5 52.2572 157.457 52.6261 157.414C53.2434 157.451 53.8607 157.488 55.1645 157.541C63.7929 157.534 71.7348 157.51 79.6767 157.487C79.2039 157.758 78.7299 158.267 78.2585 158.264C68.7536 158.209 59.2491 158.095 49.4356 157.794C49.1267 157.595 49.2695 157.534 49.5446 157.512C49.8197 157.489 50.1953 157.345 50.1953 157.345Z" fill="#1EA8E4"/>
<path id="Vector_12" d="M79.6096 41.8089C79.7198 42.136 79.3794 42.0422 79.1146 41.798C78.5985 41.4824 78.3472 41.4112 78.0959 41.3399C70.4128 41.3157 62.7298 41.2916 54.4526 41.2255C53.7139 41.1297 53.5691 41.076 53.4244 41.0223C61.8304 40.8757 70.2363 40.7203 78.6429 40.6211C78.9253 40.6178 79.2137 41.1821 79.6096 41.8089Z" fill="#19A8EE"/>
<path id="Vector_13" d="M79.6971 157.288C71.7348 157.51 63.7929 157.534 55.4705 157.486C61.2603 157.184 67.4302 156.94 73.6012 156.731C75.354 156.672 77.1099 156.716 79.2408 156.709C79.6173 156.705 79.7174 157.09 79.6971 157.288Z" fill="#E3FFFF"/>
<path id="Vector_14" d="M118.197 137.405C118.398 137.308 118.762 137.417 118.95 137.422C119.171 137.872 119.202 138.318 119.234 138.763C118.782 138.71 118.329 138.657 117.714 138.439C117.7 138.017 117.848 137.759 118.197 137.405Z" fill="#E3FFFF"/>
<path id="Vector_15" d="M53.2209 41.1017C53.5692 41.0759 53.7139 41.1296 54.0712 41.2769C53.8261 41.4553 53.3683 41.5401 52.7653 41.4955C52.7524 41.3045 52.8849 41.2429 53.2209 41.1017Z" fill="#D3F9FF"/>
<path id="Vector_16" d="M136.56 41.5242C136.605 41.3157 136.744 41.2588 137.106 41.179C137.342 41.3076 137.355 41.4593 137.301 41.8279C137.007 41.9824 136.814 41.8595 136.56 41.5242Z" fill="#D3F9FF"/>
<path id="Vector_17" d="M106.929 41.4509C106.937 41.2505 107.345 41.2181 107.539 41.2871C107.627 41.5608 107.482 41.7285 107.162 41.9481C107.024 42.0369 106.92 41.6512 106.929 41.4509Z" fill="#D3F9FF"/>
<path id="Vector_18" d="M107.508 138.474C107.598 138.697 107.453 138.866 107.153 139.111C107.113 138.955 107.205 138.698 107.508 138.474Z" fill="#E3FFFF"/>
<path id="Vector_19" d="M119.546 131.893C119.345 109.716 119.3 87.219 119.322 64.3167C119.608 65.0373 120.013 66.163 120.014 67.2895C120.05 88.002 120.041 108.715 120.021 129.427C120.021 130.143 119.813 130.858 119.546 131.893Z" fill="#E3FFFF"/>
<path id="Vector_20" d="M119.462 62.0742C119.348 62.0279 119.31 61.8812 119.315 61.511C119.562 61.4751 119.623 61.7039 119.462 62.0742Z" fill="#E3FFFF"/>
<path id="Vector_21" d="M52.4781 157.294C52.2572 157.457 51.8884 157.5 51.2477 157.47C51.4274 157.323 51.8787 157.249 52.4781 157.294Z" fill="#E3FFFF"/>
<path id="Vector_22" d="M78.2292 41.4813C78.3472 41.4111 78.5986 41.4824 78.9434 41.7558C78.7819 41.9149 78.5571 41.8032 78.2292 41.4813Z" fill="#D3F9FF"/>
<path id="Vector_23" d="M50.1298 157.198C50.1953 157.346 49.8197 157.49 49.6214 157.511C49.4178 157.387 49.4124 157.241 49.4866 156.891C49.7746 156.742 49.9407 156.863 50.1298 157.198Z" fill="#C9FAFF"/>
</g>
<defs>
<clipPath id="clip0_150_1112">
<rect width="185" height="197" fill="white"/>
</clipPath>
</defs>
</svg>
