<svg width="26" height="16" viewBox="0 0 26 16" fill="none" xmlns="http://www.w3.org/2000/svg">
<path d="M13.7682 5.16266C12.7991 2.25169 10.1755 0.165283 7.09091 0.165283C3.17909 0.165283 0 3.52602 0 7.66135C0 11.7967 3.17909 15.1574 7.09091 15.1574C10.1755 15.1574 12.7991 13.071 13.7682 10.16H18.9091V15.1574H23.6364V10.16H26V5.16266H13.7682ZM7.09091 10.16C5.79091 10.16 4.72727 9.03562 4.72727 7.66135C4.72727 6.28707 5.79091 5.16266 7.09091 5.16266C8.39091 5.16266 9.45455 6.28707 9.45455 7.66135C9.45455 9.03562 8.39091 10.16 7.09091 10.16Z" fill="black"/>
</svg>
