<svg width="46" height="41" viewBox="0 0 46 41" fill="none" xmlns="http://www.w3.org/2000/svg">
<g clip-path="url(#clip0_2_86)">
<path d="M23 0C35.6855 0 46 9.19335 46 20.5C46 31.8066 35.6855 41 23 41C10.3145 41 0 31.8066 0 20.5C0 9.19335 10.3145 0 23 0ZM23 2.5625C11.8682 2.5625 2.875 10.5782 2.875 20.5C2.875 30.4217 11.8682 38.4375 23 38.4375C34.1318 38.4375 43.125 30.4217 43.125 20.5C43.125 10.5782 34.1318 2.5625 23 2.5625ZM30.1875 12.8125V28.1875L18.6875 20.5L30.1875 12.8125ZM18.6875 20.5V28.1875H15.8125V12.8125H18.6875V20.5Z" fill="#17A4DD"/>
</g>
<defs>
<clipPath id="clip0_2_86">
<rect width="46" height="41" fill="white"/>
</clipPath>
</defs>
</svg>
