<svg width="46" height="41" viewBox="0 0 46 41" fill="none" xmlns="http://www.w3.org/2000/svg">
<g clip-path="url(#clip0_2_86)">
<path d="M22.5793 0C35.0327 0 45.1585 9.02518 45.1585 20.125C45.1585 31.2248 35.0327 40.25 22.5793 40.25C10.1258 40.25 0 31.2248 0 20.125C0 9.02518 10.1258 0 22.5793 0ZM22.5793 2.51562C11.6511 2.51562 2.82241 10.3847 2.82241 20.125C2.82241 29.8652 11.6511 37.7344 22.5793 37.7344C33.5074 37.7344 42.3361 29.8652 42.3361 20.125C42.3361 10.3847 33.5074 2.51562 22.5793 2.51562ZM29.6353 12.5781V27.6719L18.3457 20.125L29.6353 12.5781ZM18.3457 20.125V27.6719H15.5232V12.5781H18.3457V20.125Z" fill="#17A4DD"/>
</g>
<defs>
<clipPath id="clip0_2_86">
<rect width="45.1585" height="40.25" fill="white"/>
</clipPath>
</defs>
</svg>
