<svg width="55" height="54" viewBox="0 0 55 54" fill="none" xmlns="http://www.w3.org/2000/svg">
<path id="Star 3" d="M23.6958 3.7082C24.8932 0.022953 30.1068 0.0229626 31.3042 3.70821L35.0212 15.1479C35.5567 16.796 37.0925 17.9119 38.8254 17.9119H50.8539C54.7288 17.9119 56.3399 22.8703 53.205 25.1479L43.4738 32.2181C42.0719 33.2366 41.4852 35.0421 42.0207 36.6902L45.7377 48.1299C46.9351 51.8152 42.7172 54.8797 39.5824 52.6021L29.8511 45.5319C28.4492 44.5134 26.5508 44.5134 25.1489 45.5319L15.4176 52.6021C12.2828 54.8797 8.06487 51.8152 9.26228 48.1299L12.9793 36.6902C13.5148 35.0421 12.9281 33.2366 11.5262 32.2181L1.79497 25.1479C-1.33989 22.8703 0.271223 17.9119 4.14612 17.9119H16.1746C17.9075 17.9119 19.4433 16.796 19.9788 15.1479L23.6958 3.7082Z" fill="#3EB377"/>
</svg>
